<!DOCTYPE svg PUBLIC "-//W3C//DTD SVG 20010904//EN" "http://www.w3.org/TR/2001/REC-SVG-20010904/DTD/svg10.dtd">
<svg version="1.0" xmlns="http://www.w3.org/2000/svg" width="671px" height="671px" viewBox="0 0 6710 6710" preserveAspectRatio="xMidYMid meet">
<g id="layer101" fill="#000000" stroke="none">
<path d="M0 3355 l0 -3355 3355 0 3355 0 0 3355 0 3355 -3355 0 -3355 0 0 -3355z"/>
</g>
<g id="layer102" fill="#345174" stroke="none">
<path d="M0 3355 l0 -3355 3355 0 3355 0 0 3355 0 3355 -3355 0 -3355 0 0 -3355z m3635 3085 c647 -61 1231 -302 1715 -708 589 -493 962 -1160 1081 -1932 20 -125 23 -186 23 -440 1 -309 -4 -376 -50 -610 -145 -741 -570 -1417 -1179 -1874 -715 -538 -1618 -737 -2510 -554 -473 96 -958 334 -1345 659 -605 507 -990 1222 -1086 2014 -22 185 -22 532 0 714 110 910 590 1699 1346 2213 413 281 896 458 1400 512 154 17 457 20 605 6z"/>
<path d="M3125 6310 c-536 -55 -983 -210 -1397 -486 -712 -475 -1167 -1190 -1299 -2044 -19 -123 -23 -186 -23 -420 -1 -287 6 -362 50 -585 146 -745 588 -1417 1222 -1860 375 -261 825 -435 1302 -501 159 -23 575 -25 730 -5 231 29 475 88 687 166 128 47 433 198 548 271 599 381 1056 981 1259 1655 41 138 89 370 107 524 17 140 17 530 0 655 -53 401 -144 702 -312 1031 -205 403 -542 791 -919 1059 -401 284 -857 462 -1350 525 -150 20 -480 27 -605 15z m-1225 -1140 c11 -11 20 -30 20 -42 0 -32 -526 -558 -558 -558 -28 0 -62 34 -62 62 0 32 526 558 558 558 12 0 31 -9 42 -20z m500 0 c11 -11 20 -30 20 -42 0 -32 -1026 -1058 -1058 -1058 -28 0 -62 34 -62 62 0 32 1026 1058 1058 1058 12 0 31 -9 42 -20z m500 0 c11 -11 20 -30 20 -42 0 -32 -1526 -1558 -1558 -1558 -28 0 -62 34 -62 62 0 32 1526 1558 1558 1558 12 0 31 -9 42 -20z m489 10 c42 -22 426 -492 674 -825 442 -593 718 -1086 819 -1464 28 -105 31 -130 31 -266 1 -218 -27 -371 -103 -568 -121 -312 -356 -589 -655 -769 -371 -224 -868 -277 -1285 -138 -516 173 -898 587 -1025 1112 -87 359 -47 634 155 1053 222 464 676 1114 1213 1738 119 138 135 150 176 127z m1263 -758 c445 -444 768 -775 768 -785 0 -10 -11 -29 -25 -42 -13 -14 -32 -25 -42 -25 -28 0 -1553 1530 -1553 1558 0 28 34 62 62 62 17 0 230 -207 790 -768z m250 250 c376 -375 518 -523 518 -540 0 -28 -34 -62 -62 -62 -32 0 -1058 1026 -1058 1058 0 28 34 62 62 62 17 0 165 -142 540 -518z m250 250 c190 -190 268 -274 268 -290 0 -28 -34 -62 -62 -62 -32 0 -558 526 -558 558 0 12 9 31 20 42 11 11 30 20 42 20 16 0 100 -78 290 -268z"/>
<path d="M3289 4952 c-392 -461 -758 -958 -999 -1357 -110 -183 -251 -474 -298 -617 -75 -225 -85 -406 -37 -643 104 -509 497 -937 991 -1080 145 -42 256 -58 414 -58 354 0 679 120 940 347 232 201 404 493 465 790 22 109 33 285 24 377 -35 355 -328 907 -858 1614 -186 250 -548 695 -570 702 -3 1 -36 -32 -72 -75z m210 -2277 c94 -23 177 -71 256 -150 115 -114 165 -234 165 -395 0 -161 -50 -279 -165 -395 -112 -113 -236 -165 -391 -165 -164 0 -284 50 -400 166 -112 111 -164 238 -164 397 0 157 52 280 165 393 77 76 164 127 258 150 72 17 199 17 276 -1z"/>
<path d="M3280 2559 c-150 -25 -284 -144 -334 -297 -22 -65 -23 -200 -3 -258 51 -141 151 -244 281 -287 66 -22 206 -22 272 0 266 89 381 410 232 645 -70 108 -174 177 -298 197 -73 12 -74 12 -150 0z"/>
</g>
<g id="layer103" fill="#ffffff" stroke="none">
<path d="M0 3355 l0 -3355 3355 0 3355 0 0 3355 0 3355 -3355 0 -3355 0 0 -3355z m3730 3080 c840 -98 1614 -546 2124 -1229 224 -300 405 -671 501 -1024 80 -297 108 -504 109 -817 1 -256 -11 -386 -55 -610 -120 -611 -400 -1136 -844 -1581 -184 -185 -312 -292 -488 -407 -407 -267 -796 -415 -1285 -489 -126 -19 -187 -22 -432 -22 -243 0 -306 4 -430 23 -689 105 -1280 401 -1760 881 -486 486 -790 1100 -885 1787 -22 157 -30 492 -16 653 37 422 130 755 316 1135 166 340 386 631 685 907 487 450 1119 734 1775 798 61 5 128 12 150 14 79 8 403 -4 535 -19z"/>
<path d="M3115 6304 c-16 -2 -86 -11 -155 -20 -498 -61 -1027 -287 -1442 -616 -131 -103 -373 -345 -470 -468 -346 -439 -553 -935 -624 -1495 -20 -160 -23 -503 -5 -665 64 -587 299 -1137 679 -1590 112 -135 338 -350 474 -453 355 -268 764 -453 1197 -542 362 -75 817 -77 1171 -4 401 82 780 242 1105 467 215 148 469 385 630 587 289 361 499 810 589 1260 45 222 51 296 51 595 0 302 -9 387 -60 625 -189 878 -770 1620 -1580 2020 -199 98 -371 162 -581 216 -249 63 -390 80 -689 84 -143 2 -273 1 -290 -1z m-1211 -1130 c9 -8 16 -30 16 -47 0 -28 -30 -62 -263 -294 -232 -233 -266 -263 -294 -263 -40 0 -63 23 -63 63 0 28 30 62 263 294 232 233 266 263 294 263 17 0 39 -7 47 -16z m500 0 c9 -8 16 -30 16 -47 0 -29 -52 -83 -513 -544 -461 -461 -515 -513 -544 -513 -40 0 -63 23 -63 63 0 29 52 83 513 544 461 461 515 513 544 513 17 0 39 -7 47 -16z m500 0 c9 -8 16 -30 16 -47 0 -29 -73 -105 -763 -794 -689 -690 -765 -763 -794 -763 -40 0 -63 23 -63 63 0 29 73 105 763 794 689 690 765 763 794 763 17 0 39 -7 47 -16z m511 -11 c52 -55 234 -271 360 -428 647 -809 1035 -1465 1125 -1905 24 -119 26 -297 5 -438 -77 -516 -426 -975 -901 -1186 -494 -219 -1069 -173 -1505 120 -440 296 -699 770 -700 1283 0 182 36 336 132 567 163 392 526 952 1004 1549 136 170 358 432 383 453 27 21 69 14 97 -15z m1242 -736 c662 -661 763 -766 763 -791 0 -39 -26 -66 -64 -66 -28 0 -113 82 -793 763 -690 689 -763 765 -763 794 0 40 23 63 63 63 29 0 105 -73 794 -763z m250 250 c461 -461 513 -515 513 -544 0 -17 -7 -39 -16 -47 -8 -9 -30 -16 -47 -16 -29 0 -83 52 -544 513 -461 461 -513 515 -513 544 0 40 23 63 63 63 29 0 83 -52 544 -513z m250 250 c233 -232 263 -266 263 -294 0 -17 -7 -39 -16 -47 -8 -9 -30 -16 -47 -16 -28 0 -62 30 -294 263 -233 232 -263 266 -263 294 0 40 23 63 63 63 28 0 62 -30 294 -263z"/>
</g>


</svg>